<svg width="40" height="40" viewBox="0 0 40 40" fill="none" xmlns="http://www.w3.org/2000/svg">
<path fill-rule="evenodd" clip-rule="evenodd" d="M30 20C30 19.6685 29.8683 19.3505 29.6339 19.1161C29.3995 18.8817 29.0816 18.75 28.75 18.75H14.2675L19.635 13.385C19.7513 13.2688 19.8434 13.1308 19.9063 12.9789C19.9692 12.8271 20.0016 12.6643 20.0016 12.5C20.0016 12.3356 19.9692 12.1729 19.9063 12.021C19.8434 11.8692 19.7513 11.7312 19.635 11.615C19.5188 11.4988 19.3808 11.4066 19.229 11.3437C19.0771 11.2808 18.9144 11.2484 18.75 11.2484C18.5857 11.2484 18.4229 11.2808 18.2711 11.3437C18.1192 11.4066 17.9813 11.4988 17.865 11.615L10.365 19.115C10.2486 19.2311 10.1563 19.369 10.0933 19.5209C10.0302 19.6728 9.9978 19.8356 9.9978 20C9.9978 20.1644 10.0302 20.3272 10.0933 20.4791C10.1563 20.6309 10.2486 20.7689 10.365 20.885L17.865 28.385C18.0998 28.6197 18.4181 28.7516 18.75 28.7516C19.082 28.7516 19.4003 28.6197 19.635 28.385C19.8698 28.1503 20.0016 27.8319 20.0016 27.5C20.0016 27.168 19.8698 26.8497 19.635 26.615L14.2675 21.25H28.75C29.0816 21.25 29.3995 21.1183 29.6339 20.8839C29.8683 20.6494 30 20.3315 30 20Z" fill="#6C63FF"/>
</svg>
