<svg width="100" height="100" viewBox="0 0 100 100" fill="none" xmlns="http://www.w3.org/2000/svg">
<path d="M87.5 50V68.75H12.5V18.75H50V12.5H12.5C10.8424 12.5 9.25268 13.1585 8.08058 14.3306C6.90848 15.5027 6.25 17.0924 6.25 18.75V68.75C6.25 70.4076 6.90848 71.9973 8.08058 73.1694C9.25268 74.3415 10.8424 75 12.5 75H37.5V87.5H25V93.75H75V87.5H62.5V75H87.5C89.1576 75 90.7473 74.3415 91.9194 73.1694C93.0915 71.9973 93.75 70.4076 93.75 68.75V50H87.5ZM56.25 87.5H43.75V75H56.25V87.5Z" fill="#6C63FF"/>
<path d="M65.625 46.875L50 31.375L54.9688 26.4688L65.625 37.0313L88.7812 14.0625L93.75 19L65.625 46.875Z" fill="#6C63FF"/>
</svg>
