<svg width="100" height="100" viewBox="0 0 100 100" fill="none" xmlns="http://www.w3.org/2000/svg">
<path d="M12.5 6.25H6.25V87.5C6.25 89.1576 6.90848 90.7473 8.08058 91.9194C9.25268 93.0915 10.8424 93.75 12.5 93.75H93.75V87.5H12.5V6.25Z" fill="#6C63FF"/>
<path d="M93.75 28.125H71.875V34.375H83.0938L59.375 58.0938L45.9688 44.6562C45.6782 44.3633 45.3326 44.1309 44.9518 43.9722C44.571 43.8136 44.1625 43.7319 43.75 43.7319C43.3375 43.7319 42.929 43.8136 42.5482 43.9722C42.1674 44.1309 41.8218 44.3633 41.5312 44.6562L18.75 67.4688L23.1562 71.875L43.75 51.2812L57.1563 64.7187C57.4468 65.0117 57.7924 65.2441 58.1732 65.4028C58.554 65.5614 58.9625 65.6431 59.375 65.6431C59.7875 65.6431 60.196 65.5614 60.5768 65.4028C60.9576 65.2441 61.3032 65.0117 61.5937 64.7187L87.5 38.7812V50H93.75V28.125Z" fill="#6C63FF"/>
</svg>
