<svg width="740" height="612" viewBox="0 0 740 612" fill="none" xmlns="http://www.w3.org/2000/svg">
<g clip-path="url(#clip0_2:2)">
<path d="M894.028 91.4674H458.997V179.846H894.028V91.4674Z" stroke="#3F3D56" stroke-miterlimit="10"/>
<path d="M199.39 217.007C211.796 197.867 235.283 184.954 262.215 184.954C302.082 184.954 334.4 213.248 334.4 248.15C334.4 270.465 321.189 290.078 301.241 301.323" stroke="#3F3D56" stroke-miterlimit="10"/>
<path d="M863.23 108.573H428.199V196.952H863.23V108.573Z" fill="#6C63FF"/>
<path d="M153.195 24.233C156.916 24.233 159.933 21.2547 159.933 17.5807C159.933 13.9068 156.916 10.9285 153.195 10.9285C149.474 10.9285 146.458 13.9068 146.458 17.5807C146.458 21.2547 149.474 24.233 153.195 24.233Z" fill="#6C63FF"/>
<path d="M176.294 24.233C180.015 24.233 183.032 21.2547 183.032 17.5807C183.032 13.9068 180.015 10.9285 176.294 10.9285C172.573 10.9285 169.557 13.9068 169.557 17.5807C169.557 21.2547 172.573 24.233 176.294 24.233Z" fill="#6C63FF"/>
<path d="M199.393 24.233C203.114 24.233 206.131 21.2547 206.131 17.5807C206.131 13.9068 203.114 10.9285 199.393 10.9285C195.672 10.9285 192.656 13.9068 192.656 17.5807C192.656 21.2547 195.672 24.233 199.393 24.233Z" fill="#6C63FF"/>
<path d="M943.373 0.475159H134.909V519.345H943.373V0.475159Z" stroke="#3F3D56" stroke-miterlimit="10"/>
<path d="M134.909 29.3029H943.373" stroke="#3F3D56" stroke-miterlimit="10"/>
<path d="M155.12 21.382C158.841 21.382 161.858 18.4037 161.858 14.7298C161.858 11.0558 158.841 8.07751 155.12 8.07751C151.399 8.07751 148.383 11.0558 148.383 14.7298C148.383 18.4037 151.399 21.382 155.12 21.382Z" stroke="#3F3D56" stroke-miterlimit="10"/>
<path d="M178.219 21.382C181.94 21.382 184.957 18.4037 184.957 14.7298C184.957 11.0558 181.94 8.07751 178.219 8.07751C174.498 8.07751 171.482 11.0558 171.482 14.7298C171.482 18.4037 174.498 21.382 178.219 21.382Z" stroke="#3F3D56" stroke-miterlimit="10"/>
<path d="M201.318 21.382C205.039 21.382 208.055 18.4037 208.055 14.7298C208.055 11.0558 205.039 8.07751 201.318 8.07751C197.597 8.07751 194.581 11.0558 194.581 14.7298C194.581 18.4037 197.597 21.382 201.318 21.382Z" stroke="#3F3D56" stroke-miterlimit="10"/>
<path d="M388.734 29.3029V520.082" stroke="#3F3D56" stroke-miterlimit="10"/>
<path d="M621.172 270.601H479.69V289.607H621.172V270.601Z" fill="#F2F2F2"/>
<path d="M843.499 270.601H702.018V289.607H843.499V270.601Z" fill="#F2F2F2"/>
<path d="M628.871 261.098H487.39V280.104H628.871V261.098Z" stroke="#3F3D56" stroke-miterlimit="10"/>
<path d="M621.172 417.899H479.69V436.905H621.172V417.899Z" fill="#F2F2F2"/>
<path d="M628.871 408.396H487.39V427.402H628.871V408.396Z" stroke="#3F3D56" stroke-miterlimit="10"/>
<path d="M843.98 342.349H480.172V361.356H843.98V342.349Z" fill="#F2F2F2"/>
<path d="M851.68 334.747H487.871V353.753H851.68V334.747Z" stroke="#3F3D56" stroke-miterlimit="10"/>
<path d="M851.199 261.098H709.718V280.104H851.199V261.098Z" stroke="#3F3D56" stroke-miterlimit="10"/>
<path d="M174.504 261.452C174.504 286.286 191.027 307.745 214.988 317.916L180.723 235.92C176.645 243.83 174.514 252.577 174.504 261.452ZM294.829 258.287C294.829 250.533 291.64 245.164 288.905 240.984C285.264 235.816 281.852 231.44 281.852 226.272C281.852 220.505 286.859 215.137 293.913 215.137C294.232 215.137 294.534 215.172 294.845 215.187C281.058 204.382 263.937 198.57 246.336 198.718C221.241 198.718 199.163 209.963 186.318 226.996C188.004 227.04 189.593 227.07 190.941 227.07C198.455 227.07 210.085 226.274 210.085 226.274C213.957 226.074 214.414 231.041 210.547 231.441C210.547 231.441 206.654 231.841 202.324 232.039L228.483 299.994L244.204 258.818L233.011 232.038C229.143 231.84 225.478 231.44 225.478 231.44C221.607 231.242 222.061 226.073 225.932 226.272C225.932 226.272 237.795 227.069 244.853 227.069C252.365 227.069 263.997 226.272 263.997 226.272C267.872 226.073 268.327 231.04 264.458 231.44C264.458 231.44 260.558 231.84 256.236 232.038L282.195 299.478L289.359 278.567C292.466 269.89 294.829 263.657 294.829 258.287H294.829Z" fill="#6C63FF"/>
<path d="M247.596 266.94L226.044 321.635C240.568 325.356 255.854 325.01 270.19 320.636C269.992 320.365 269.82 320.076 269.679 319.772L247.596 266.94ZM309.367 231.353C309.693 233.488 309.855 235.645 309.85 237.804C309.85 244.17 308.489 251.327 304.389 260.275L282.447 315.681C303.802 304.805 318.166 284.598 318.166 261.452C318.148 250.803 315.099 240.374 309.367 231.353L309.367 231.353Z" fill="#6C63FF"/>
</g>
<defs>
<clipPath id="clip0_2:2">
<rect width="1128" height="612" fill="white"/>
</clipPath>
</defs>
</svg>
