<svg width="100" height="86" viewBox="0 0 100 86" fill="none" xmlns="http://www.w3.org/2000/svg">
<path d="M95 5.32408H5C2.23906 5.32408 0 7.70827 0 10.6482V74.537C0 77.4769 2.23906 79.8611 5 79.8611H95C97.7609 79.8611 100 77.4769 100 74.537V10.6482C100 7.70827 97.7609 5.32408 95 5.32408ZM27.5 54.5518V57.2338C27.5 57.9692 26.9406 58.5648 26.25 58.5648H23.75C23.0594 58.5648 22.5 57.9692 22.5 57.2338V54.5235C20.7359 54.427 19.0203 53.7715 17.5984 52.6351C16.9891 52.1476 16.9578 51.176 17.5094 50.6153L19.3453 48.7502C19.7781 48.311 20.4219 48.291 20.9281 48.6288C21.5328 49.0314 22.2188 49.2477 22.9312 49.2477H27.3234C28.3391 49.2477 29.1672 48.2627 29.1672 47.0532C29.1672 46.0632 28.6031 45.1914 27.7969 44.9352L20.7656 42.6891C17.8609 41.7607 15.8313 38.7925 15.8313 35.47C15.8313 31.3904 18.8078 28.0762 22.4984 27.9714V25.2894C22.4984 24.554 23.0578 23.9583 23.7484 23.9583H26.2484C26.9391 23.9583 27.4984 24.554 27.4984 25.2894V27.9996C29.2625 28.0961 30.9781 28.75 32.4 29.888C33.0094 30.3755 33.0406 31.3472 32.4891 31.9079L30.6531 33.7729C30.2203 34.2122 29.5766 34.2321 29.0703 33.8944C28.4656 33.4901 27.7797 33.2755 27.0672 33.2755H22.675C21.6594 33.2755 20.8313 34.2604 20.8313 35.47C20.8313 36.4599 21.3953 37.3317 22.2016 37.588L29.2328 39.8341C32.1375 40.7625 34.1672 43.7306 34.1672 47.0532C34.1672 51.1344 31.1906 54.447 27.5 54.5518ZM65 51.9097C65 52.6451 64.4406 53.2407 63.75 53.2407H46.25C45.5594 53.2407 45 52.6451 45 51.9097V49.2477C45 48.5123 45.5594 47.9167 46.25 47.9167H63.75C64.4406 47.9167 65 48.5123 65 49.2477V51.9097ZM90 51.9097C90 52.6451 89.4406 53.2407 88.75 53.2407H76.25C75.5594 53.2407 75 52.6451 75 51.9097V49.2477C75 48.5123 75.5594 47.9167 76.25 47.9167H88.75C89.4406 47.9167 90 48.5123 90 49.2477V51.9097ZM90 35.9375C90 36.6729 89.4406 37.2685 88.75 37.2685H46.25C45.5594 37.2685 45 36.6729 45 35.9375V33.2755C45 32.5401 45.5594 31.9445 46.25 31.9445H88.75C89.4406 31.9445 90 32.5401 90 33.2755V35.9375Z" fill="#6C63FF"/>
</svg>
