<svg width="100" height="100" viewBox="0 0 100 100" fill="none" xmlns="http://www.w3.org/2000/svg">
<path d="M91.0156 3.125H8.98438C6.05469 3.125 3.125 6.05469 3.125 8.98438V74.9031C3.125 77.8328 6.05469 80.7625 8.98438 80.7625H38.2812V86.6219C38.2812 90.6906 33.0031 92.4812 26.5625 92.4812V96.875H73.4375V92.4797C66.9953 92.4797 61.7188 90.6891 61.7188 86.6203V80.7609H91.0156C93.9453 80.7609 96.875 77.8313 96.875 74.9016V8.98438C96.875 6.05469 93.9453 3.125 91.0156 3.125ZM93.75 74.9031C93.75 76.1047 92.2156 77.6375 91.0156 77.6375H8.98438C7.78281 77.6375 6.25 76.1047 6.25 74.9031V69.0437H93.75V74.9031Z" fill="#6C63FF"/>
<path d="M50 76.3688C50.8095 76.3688 51.4656 75.7126 51.4656 74.9031C51.4656 74.0937 50.8095 73.4375 50 73.4375C49.1906 73.4375 48.5344 74.0937 48.5344 74.9031C48.5344 75.7126 49.1906 76.3688 50 76.3688Z" fill="#6C63FF"/>
</svg>
