<svg width="21" height="21" viewBox="0 0 21 21" fill="none" xmlns="http://www.w3.org/2000/svg">
<path d="M17.2419 1.87866V19.1214H0V1.87866H17.2419ZM0.123375 18.998H17.1185V2.00204H0.123375V18.998ZM2.36425 9.85954C2.73875 9.85954 3.02925 9.95841 3.23575 10.1553C3.44225 10.3522 3.55688 10.577 3.57963 10.8273H3.18937C3.15358 10.6513 3.06032 10.4922 2.92425 10.3749C2.793 10.2629 2.6075 10.2078 2.36863 10.2078C2.07725 10.2078 1.84188 10.3102 1.66163 10.5158C1.48313 10.7197 1.39388 11.032 1.39388 11.4555C1.39388 11.802 1.47437 12.0829 1.63537 12.299C1.79812 12.5134 2.03963 12.621 2.35988 12.621C2.65563 12.621 2.8805 12.5073 3.0345 12.2807C3.11675 12.1617 3.17712 12.0042 3.21825 11.8099H3.6085C3.5735 12.1214 3.458 12.3822 3.262 12.593C3.0275 12.8468 2.71075 12.9728 2.31175 12.9728C1.96875 12.9728 1.68 12.8695 1.44637 12.6613C1.14013 12.3857 0.98525 11.9613 0.98525 11.3873C0.98525 10.9507 1.10075 10.5937 1.33175 10.3145C1.58112 10.0109 1.92587 9.85954 2.36425 9.85954V9.85954ZM4.35925 11.942C4.36128 12.0864 4.40208 12.2275 4.47738 12.3507C4.61038 12.5467 4.84488 12.6447 5.18 12.6447C5.3305 12.6447 5.467 12.6237 5.59125 12.5808C5.82925 12.4977 5.94912 12.348 5.94912 12.1337C5.94912 11.9727 5.89837 11.858 5.79775 11.7898C5.69625 11.7224 5.53612 11.6638 5.31912 11.6148L4.91837 11.5238C4.65675 11.4652 4.47213 11.3995 4.36275 11.3287C4.1755 11.2053 4.081 11.0207 4.081 10.7748C4.081 10.5097 4.17288 10.2909 4.35663 10.1212C4.54038 9.95054 4.80113 9.86566 5.138 9.86566C5.44775 9.86566 5.71113 9.94004 5.92725 10.0905C6.14425 10.2393 6.25275 10.4782 6.25275 10.808H5.8765C5.86669 10.6772 5.8223 10.5513 5.74787 10.4432C5.62537 10.2883 5.418 10.2113 5.12663 10.2113C4.89038 10.2113 4.71975 10.2612 4.6165 10.36C4.56784 10.4037 4.5289 10.4571 4.50222 10.5168C4.47554 10.5765 4.46171 10.6412 4.46162 10.7065C4.46162 10.8518 4.52288 10.9577 4.64275 11.025C4.7215 11.0679 4.90088 11.1213 5.18 11.186L5.59475 11.2805C5.79513 11.326 5.94912 11.3882 6.0585 11.4678C6.24575 11.606 6.33937 11.8064 6.33937 12.0689C6.33937 12.397 6.22038 12.6307 5.98063 12.7715C5.72886 12.9163 5.44234 12.9895 5.152 12.9833C4.7845 12.9833 4.49575 12.8888 4.28838 12.7015C4.081 12.5152 3.97863 12.2623 3.98213 11.9429H4.35837L4.35925 11.942ZM7.10413 11.942C7.10642 12.0865 7.14752 12.2276 7.22313 12.3507C7.35613 12.5467 7.59062 12.6447 7.92575 12.6447C8.07537 12.6447 8.21275 12.6237 8.33613 12.5808C8.575 12.4977 8.69488 12.348 8.69488 12.1337C8.69488 11.9727 8.64412 11.858 8.5435 11.7898C8.44112 11.7224 8.281 11.6638 8.064 11.6148L7.66412 11.5238C7.40162 11.4652 7.217 11.3995 7.1085 11.3287C6.92037 11.2053 6.82675 11.0207 6.82675 10.7748C6.82675 10.5097 6.91862 10.2909 7.10237 10.1212C7.28612 9.95054 7.54687 9.86566 7.88287 9.86566C8.1935 9.86566 8.456 9.94004 8.67213 10.0905C8.89 10.2393 8.9985 10.4782 8.9985 10.808H8.62225C8.61218 10.6771 8.56748 10.5512 8.49275 10.4432C8.37025 10.2883 8.16375 10.2113 7.8715 10.2113C7.63525 10.2113 7.4655 10.2612 7.36225 10.36C7.31359 10.4037 7.27465 10.4571 7.24797 10.5168C7.22129 10.5765 7.20746 10.6412 7.20738 10.7065C7.20738 10.8518 7.26775 10.9577 7.3885 11.025C7.46725 11.0679 7.64662 11.1213 7.92575 11.186L8.3405 11.2805C8.54 11.326 8.694 11.3882 8.80337 11.4678C8.99062 11.606 9.08513 11.8064 9.08513 12.0689C9.08513 12.397 8.96525 12.6307 8.72637 12.7715C8.47461 12.9163 8.18809 12.9895 7.89775 12.9833C7.53025 12.9833 7.2415 12.8888 7.03412 12.7015C6.82587 12.5152 6.7235 12.2623 6.72788 11.9429H7.10413V11.942ZM1.68175 15.092L2.5305 17.5919L3.37488 15.092H3.94188V18.0495H3.56213V16.3039C3.56213 16.2427 3.563 16.1438 3.56562 16.0038C3.56825 15.8638 3.57 15.715 3.57 15.5549L2.7265 18.0487H2.33013L1.48137 15.5549V15.6459C1.48137 15.7185 1.48138 15.8297 1.48488 15.9784C1.48838 16.1254 1.491 16.2339 1.491 16.3039V18.0487H1.10862V15.092H1.68175V15.092ZM5.83187 15.0124C6.35425 15.0124 6.74012 15.1795 6.99125 15.5155C7.18725 15.7772 7.28525 16.1114 7.28525 16.5192C7.28525 16.961 7.17325 17.3277 6.94925 17.6208C6.68675 17.9638 6.3105 18.1362 5.824 18.1362C5.369 18.1362 5.01112 17.9857 4.75125 17.6847C4.51937 17.3959 4.403 17.0284 4.403 16.5857C4.403 16.1858 4.50188 15.8437 4.7005 15.5593C4.956 15.1944 5.33312 15.0124 5.83187 15.0124V15.0124ZM5.87212 17.7774C6.22475 17.7774 6.48025 17.6514 6.63688 17.3994C6.79525 17.1457 6.87487 16.8543 6.87487 16.5253C6.87487 16.1779 6.783 15.8979 6.601 15.6862C6.41988 15.4744 6.17225 15.3685 5.85637 15.3685C5.55012 15.3685 5.30075 15.4735 5.10737 15.6835C4.91487 15.8935 4.81775 16.2033 4.81775 16.6119C4.81775 16.94 4.9 17.2157 5.06538 17.4414C5.23163 17.6654 5.50025 17.7774 5.87212 17.7774V17.7774ZM8.89525 17.7074C9.03088 17.7074 9.14288 17.6925 9.2295 17.6645C9.38757 17.6103 9.52244 17.5038 9.61187 17.3627C9.69888 17.2227 9.75718 17.0669 9.78337 16.9042C9.80252 16.8017 9.81248 16.6978 9.81313 16.5935C9.81313 16.2278 9.7405 15.9434 9.59438 15.7404C9.44913 15.5383 9.21462 15.4368 8.89175 15.4368H8.18125V17.7074H8.89525V17.7074ZM7.77875 15.0912H8.97575C9.38263 15.0912 9.69762 15.2355 9.92162 15.5243C10.122 15.7842 10.2218 16.1184 10.2218 16.5244C10.2218 16.8394 10.1631 17.122 10.045 17.3758C9.83675 17.8238 9.47887 18.0487 8.97225 18.0487H7.77875V15.0912ZM11.1738 15.0912V16.919C11.1738 17.1334 11.214 17.3128 11.2945 17.4545C11.4135 17.6689 11.6156 17.7765 11.8982 17.7765C12.2377 17.7765 12.4687 17.6602 12.5904 17.4283C12.6569 17.3023 12.6892 17.1325 12.6892 16.919V15.0912H13.0961V16.7519C13.0961 17.115 13.0471 17.395 12.9491 17.5919C12.7689 17.948 12.4294 18.1257 11.9306 18.1257C11.4319 18.1257 11.0924 17.948 10.9139 17.5919C10.8159 17.395 10.7669 17.115 10.7669 16.7519V15.0912H11.1738V15.0912ZM14.1111 15.0912V17.696H15.6082V18.0478H13.7095V15.0912H14.1111ZM16.0431 15.0912H18.1983V15.4534H16.4334V16.3512H18.0652V16.6933H16.4334V17.696H18.2289V18.0478H16.0431V15.0912V15.0912ZM19.0199 17.0949C19.0286 17.2612 19.0689 17.3985 19.138 17.5027C19.271 17.6987 19.5055 17.7967 19.8406 17.7967C19.9911 17.7967 20.1276 17.7748 20.2519 17.7319C20.4899 17.6488 20.6098 17.5 20.6098 17.2857C20.6098 17.1247 20.559 17.01 20.4584 16.9409C20.3569 16.8744 20.1967 16.8158 19.9797 16.7659L19.579 16.6758C19.3174 16.6163 19.1327 16.5515 19.0234 16.4807C18.8352 16.3573 18.7416 16.1727 18.7416 15.9268C18.7416 15.6608 18.8335 15.4429 19.0172 15.2723C19.201 15.1025 19.4618 15.0168 19.7986 15.0168C20.1084 15.0168 20.3717 15.092 20.587 15.2425C20.8049 15.3913 20.9134 15.6302 20.9134 15.9592H20.5371C20.5272 15.8286 20.4828 15.703 20.4085 15.5952C20.286 15.4403 20.0786 15.3633 19.7864 15.3633C19.5501 15.3633 19.3804 15.4132 19.2771 15.512C19.2285 15.5557 19.1895 15.6091 19.1628 15.6688C19.1362 15.7285 19.1223 15.7932 19.1223 15.8585C19.1223 16.0029 19.1826 16.1097 19.3034 16.1762C19.3821 16.2199 19.5615 16.2724 19.8406 16.3372L20.2554 16.4317C20.4549 16.478 20.6097 16.5402 20.7182 16.6189C20.9064 16.7572 21 16.9584 21 17.2209C21 17.5482 20.881 17.7827 20.6413 17.9235C20.3894 18.068 20.1029 18.1409 19.8126 18.1344C19.4451 18.1344 19.1564 18.0408 18.949 17.8527C18.7408 17.6663 18.6392 17.4134 18.6427 17.094H19.019L19.0199 17.0949Z" fill="#6C63FF"/>
</svg>
