<svg width="21" height="21" viewBox="0 0 21 21" fill="none" xmlns="http://www.w3.org/2000/svg">
<path d="M7.76631 4.94178V7.35617L2.6492 9.69832L7.76631 12.1243V14.4903L0 10.8059V8.65079L7.76631 4.94174V4.94178ZM13.051 7.12751C13.051 6.51063 12.4837 6.12299 12.0324 6.43143C11.5811 6.73987 11.5811 7.51515 12.0324 7.82362C12.4838 8.13206 13.051 7.74438 13.051 7.12751V7.12751ZM11.2003 9.02288C9.66997 8.18395 9.66997 6.07517 11.2003 5.23619C12.7308 4.39726 14.6541 5.45165 14.6541 7.12956C14.6541 8.80747 12.7308 9.86185 11.2004 9.02288H11.2003ZM19.3968 13.9418C19.3968 13.3249 18.8296 12.9372 18.3783 13.2457C17.927 13.5541 17.927 14.3294 18.3783 14.6378C18.8296 14.9463 19.3968 14.5587 19.3968 13.9418V13.9418ZM17.5462 15.8371C16.0158 14.9982 16.0158 12.8894 17.5462 12.0504C19.0766 11.2115 21 12.2659 21 13.9438C21 15.6217 19.0766 16.6761 17.5462 15.8371H17.5462ZM12.8436 16.1316L20.8174 4.86853H18.0928L9.98607 16.1316H12.8436H12.8436Z" fill="#6C63FF"/>
</svg>
