<svg width="20" height="21" viewBox="0 0 20 21" fill="none" xmlns="http://www.w3.org/2000/svg">
<g clip-path="url(#clip0_302_4)">
<path d="M6.91337 4.47033C7.40925 4.56184 7.27136 5.30943 6.77544 5.21792C2.84216 4.48694 0.0864433 6.04139 2.17266 9.89038C2.422 10.3275 1.76054 10.7047 1.51124 10.2676C-0.972785 5.91609 2.24825 3.58694 6.91337 4.47033ZM16.8332 11.8512C20.3493 7.55159 18.8008 4.35414 14.5732 4.30184C14.0711 4.29528 14.0619 5.05538 14.564 5.06194C18.3061 5.04595 19.1964 7.81425 16.2507 11.3614C15.9261 11.7561 16.5207 12.2262 16.8332 11.8511V11.8512ZM13.1348 18.595C13.3917 18.1684 12.7519 17.7707 12.4825 18.2021C10.3553 21.5683 7.75513 20.5312 6.18145 16.4722C6.01131 15.9886 5.29284 16.2414 5.46298 16.7249C6.85517 20.977 10.5472 22.8503 13.1348 18.595V18.595ZM10.8047 11.0232C10.8047 10.2031 9.91075 9.68772 9.19946 10.0978C8.48812 10.5079 8.48812 11.5386 9.19946 11.9487C9.91075 12.3588 10.8047 11.8434 10.8047 11.0232ZM1.45932 14.4784C1.58327 11.0996 6.50514 6.78972 12.3093 5.30668C12.8077 5.19836 12.6462 4.45553 12.1478 4.56389C6.7868 5.7508 0.42675 10.5165 0.69409 14.6873C-0.23516 15.2481 -0.225481 16.6093 0.722596 17.1539C1.68019 17.704 2.88359 17.0127 2.88359 15.9126C2.88359 15.0858 2.20367 14.4898 1.45932 14.4784ZM17.2216 17.1129C17.9059 17.5581 18.8956 17.3542 19.2951 16.5551C19.7868 15.5714 19.0197 14.4153 17.9176 14.4792C16.8829 14.5391 16.2738 15.6328 16.7083 16.5275C13.3654 17.9819 7.15598 15.5484 3.50514 11.6801C3.17102 11.3115 2.6071 11.8225 2.94117 12.1912C6.40392 16.0201 13.4399 19.1163 17.2216 17.1129ZM11.1746 1.43259C11.175 0.492104 10.2353 -0.237277 9.28395 0.0721035C8.23416 0.413559 7.95025 1.76605 8.77413 2.50084C9.46729 3.11895 10.511 2.91321 10.9594 2.19159C13.557 3.90891 15.169 9.77792 13.4514 15.9895C13.3028 16.4704 14.0306 16.6952 14.1792 16.2144C15.7399 11.1731 14.8956 3.7074 11.1746 1.43255V1.43259Z" fill="#6C63FF"/>
</g>
<defs>
<clipPath id="clip0_302_4">
<rect width="19.45" height="21" fill="white"/>
</clipPath>
</defs>
</svg>
