<svg width="21" height="21" viewBox="0 0 21 21" fill="none" xmlns="http://www.w3.org/2000/svg">
<path d="M17.5 16.3538L11.1125 19.8975C10.675 20.125 10.2375 20.125 9.8 19.8975L3.5 16.3538L14.9187 4.84751L15.225 4.76001C15.4875 4.76001 15.6362 4.87376 15.6625 5.11001L17.5 16.3538ZM8.18125 5.02251L4.2 11.6288L5.8625 1.17251C5.88875 0.93626 6.0375 0.82251 6.3 0.82251C6.475 0.82251 6.58875 0.87501 6.65 1.04126L8.53125 4.49751L8.18125 5.02251ZM12.1188 6.12501L3.7625 14.5163L10.1063 3.75376C10.1938 3.57876 10.325 3.50001 10.5 3.50001C10.675 3.50001 10.7887 3.57876 10.85 3.75376L12.1188 6.12501Z" fill="#6C63FF"/>
</svg>
