<svg width="22" height="22" viewBox="0 0 22 22" fill="none" xmlns="http://www.w3.org/2000/svg">
<path d="M10.4437 20.2164C5.80354 20.1027 2.04501 16.433 1.79083 11.8284L1.78017 11.5502L10.4437 20.2164ZM10.665 2.44409C12.0942 2.44306 13.5025 2.78714 14.7703 3.44708C16.038 4.10701 17.1276 5.06329 17.9465 6.23461L16.4908 7.2549C15.7512 6.19872 14.7384 5.36345 13.5607 4.83843C12.3831 4.31341 11.0849 4.11838 9.80494 4.2742C8.52501 4.43003 7.31151 4.93085 6.29423 5.7231C5.27695 6.51534 4.49417 7.56921 4.02959 8.77199L13.2246 17.967C14.2796 17.5588 15.2222 16.9053 15.9745 16.0605C16.7268 15.2158 17.2672 14.2041 17.551 13.1091H13.7756V11.3316H19.5525C19.5525 15.5318 16.6383 19.0513 12.7225 19.9791L2.01657 9.27503C2.94532 5.35919 6.46477 2.44409 10.665 2.44409Z" fill="#6C63FF"/>
</svg>
