<svg width="22" height="22" viewBox="0 0 22 22" fill="none" xmlns="http://www.w3.org/2000/svg">
<path d="M2.66626 3.33289H18.6638V19.3304H2.66626V3.33289ZM17.3529 15.515C17.2364 14.7853 16.7609 14.1721 15.3514 13.5997C14.8608 13.3695 14.316 13.2105 14.1525 12.8407C14.092 12.6203 14.0831 12.5012 14.1222 12.3706C14.2227 11.9404 14.7328 11.8116 15.1328 11.9307C15.3932 12.0106 15.6331 12.2106 15.7833 12.5314C16.4721 12.0809 16.4721 12.0809 16.9529 11.7813C16.7725 11.5023 16.6827 11.3805 16.5628 11.2605C16.1424 10.7913 15.5825 10.5513 14.6733 10.5718L14.204 10.6313C13.7534 10.7415 13.3233 10.9824 13.0637 11.3014C12.3039 12.1617 12.5234 13.661 13.4432 14.2823C14.3524 14.9622 15.6838 15.1115 15.8535 15.7514C16.0135 16.5317 15.2741 16.7815 14.5426 16.6917C14.0032 16.5708 13.7028 16.3015 13.373 15.8012L12.1537 16.5015C12.2932 16.8206 12.4532 16.961 12.6931 17.2409C13.853 18.4105 16.7529 18.351 17.2729 16.5708C17.2915 16.5113 17.4328 16.1016 17.3226 15.4714L17.3529 15.515ZM11.3653 10.6855H9.86691C9.86691 11.9769 9.86069 13.2611 9.86069 14.5551C9.86069 15.3763 9.90246 16.13 9.76826 16.362C9.54874 16.8214 8.98083 16.7628 8.72398 16.681C8.46002 16.5513 8.32582 16.3708 8.17029 16.1113C8.12852 16.042 8.09741 15.9816 8.08586 15.9816L6.87005 16.7317C7.07357 17.1521 7.37041 17.5129 7.75346 17.7422C8.32315 18.0826 9.08837 18.1928 9.89002 18.0133C10.4126 17.8622 10.8632 17.552 11.0969 17.0721C11.4382 16.4526 11.3653 15.6918 11.3627 14.8422C11.3698 13.4726 11.3627 12.1022 11.3627 10.7228L11.3653 10.6855Z" fill="#6C63FF"/>
</svg>
