<svg width="21" height="21" viewBox="0 0 21 21" fill="none" xmlns="http://www.w3.org/2000/svg">
<path d="M15.0321 8.32973C13.9282 3.46233 11.3203 1.86633 11.0401 1.2547C10.7323 0.820923 10.4009 0.000610352 10.4009 0.000610352C10.3976 0.0176729 10.3976 0.0281728 10.3943 0.0452353V0.0557354C10.3943 0.0695166 10.3911 0.0760791 10.3911 0.0898603V0.103642H10.3878V0.14761H10.3845C10.3845 0.154173 10.3845 0.164673 10.3812 0.167954V0.188298C10.3812 0.19486 10.3812 0.202079 10.3779 0.20536V0.222423C10.3779 0.232923 10.3779 0.242767 10.3747 0.249985V0.253267C10.3741 0.268334 10.3719 0.283295 10.3681 0.297892V0.304454C10.3648 0.307735 10.3648 0.311017 10.3648 0.314954V0.328735H10.3615V0.349079H10.3582V0.36286H10.3517V0.383204H10.3484V0.400267H10.3451V0.414048H10.3418V0.427829H10.3386V0.44161H10.3353V0.455392H10.332V0.465892H10.3287V0.479673H10.3254V0.493454H10.3222C10.3189 0.493454 10.3189 0.496735 10.3189 0.496735V0.503298L10.3156 0.50986C10.3156 0.516423 10.3123 0.523642 10.309 0.530204C10.3057 0.533485 10.3057 0.533485 10.3057 0.536767V0.543329H10.3025V0.549892H10.2959V0.566954H10.2893V0.577454H10.2861V0.580735H10.2828V0.587298H10.2795V0.597798H10.2762V0.60436H10.2697V0.61486H10.2664V0.621423H10.2631V0.627985H10.2598V0.638485H10.2565V0.645048H10.2532V0.648329H10.25V0.654892H10.2434V0.665392H10.2401V0.668673H10.2368V0.675235H10.2336V0.685735H10.2303V0.689017H10.227V0.695579H10.2237V0.69886H10.2204V0.70936H10.2139V0.712642H10.2106V0.719204H10.2073V0.722485H10.204V0.729048H10.2007V0.73561C10.1975 0.73561 10.1975 0.738892 10.1975 0.738892V0.742173H10.1942L10.1837 0.759235C10.1837 0.759235 10.1771 0.765798 10.1771 0.769735C10.1738 0.769735 10.1738 0.773017 10.1738 0.773017V0.776298H10.1706V0.779579H10.1673V0.786142H10.1607V0.789423H10.1574V0.792704H10.1542V0.802548H10.1509V0.805829H10.1476V0.80911H10.1443V0.815673H10.141V0.80911H10.1345V0.812392H10.1312V0.818954H10.1279V0.825517H10.1246V0.828798H10.1213V0.832079H10.1181V0.83536H10.1148V0.841923H10.1082V0.845204H10.1049V0.851767H10.1017V0.855048H10.0984V0.858329H10.0951V0.868829H10.0918V0.87211H10.0885V0.875392H10.0852V0.878673H10.082V0.881954H10.0754V0.888517H10.0721V0.891798H10.0688V0.895079H10.0656V0.901642H10.0623V0.904923H10.0557V0.908204H10.0524V0.911485H10.0492V0.918048H10.0459V0.92461H10.0426V0.927892H10.0393V0.931173H10.0327V0.934454H10.0295V0.937735H10.0262V0.944298H10.0229V0.947579H10.0196V0.954142H10.0163V0.957423H10.0131V0.960704H10.0098V0.963985H10.0065V0.967267H9.99994V0.970548C9.99666 0.970548 9.99666 0.973829 9.99666 0.973829L9.99337 0.97711L9.99009 0.980392V0.986954H9.98681V0.990235H9.98353V0.993517H9.98025V0.996798H9.97697L9.97041 1.00336V1.00664C9.96384 1.00992 9.96384 1.0132 9.95662 1.02042C9.95662 1.02042 9.95006 1.02699 9.94612 1.02699C9.93562 1.03355 9.9225 1.04733 9.912 1.05783C9.90544 1.06111 9.89822 1.06833 9.89166 1.07161C9.87787 1.08539 9.86409 1.09524 9.85031 1.10574C9.82997 1.12608 9.80897 1.13986 9.78534 1.1602H9.78206L9.62128 1.30064H9.618C9.471 1.43058 9.29644 1.59792 9.09825 1.79611L9.08119 1.81317C7.89141 3.04364 6.01519 5.61023 5.82028 9.75642C5.79994 10.0983 5.80322 10.433 5.82356 10.7579V10.7644C5.91937 12.3985 6.43191 13.793 7.07437 14.9277C7.32703 15.3792 7.60397 15.7893 7.88419 16.1581C8.84822 17.43 9.83259 18.1853 10.082 18.3697C10.4685 19.2615 10.4337 20.7998 10.4337 20.7998L10.9974 20.9875C10.9974 20.9875 10.8813 19.5004 11.0421 18.7792C11.0932 18.5567 11.2094 18.3658 11.3466 18.2017C11.4424 18.1367 11.716 17.9385 12.0442 17.638C12.0612 17.6209 12.0717 17.6071 12.0855 17.5901C13.4151 16.3491 15.9003 13.2936 15.0491 8.31727L15.0321 8.32973Z" fill="#6C63FF"/>
</svg>
