<svg width="22" height="22" viewBox="0 0 22 22" fill="none" xmlns="http://www.w3.org/2000/svg">
<g clip-path="url(#clip0_9:58)">
<path d="M10.665 21.9575C10.361 21.9575 10.0784 21.8784 9.81446 21.7416L7.12244 20.1969C6.71806 19.9818 6.92069 19.9036 7.04245 19.8645C7.58815 19.6886 7.68946 19.6495 8.25649 19.3357C8.31692 19.2966 8.39869 19.3162 8.45912 19.3553L10.5237 20.5489C10.6037 20.588 10.7059 20.588 10.7663 20.5489L18.8424 16.0305C18.9224 15.9914 18.9633 15.9131 18.9633 15.8154V6.79813C18.9633 6.70037 18.9233 6.62216 18.8424 6.58305L10.7663 2.08509C10.6854 2.04598 10.5841 2.04598 10.5237 2.08509L2.44762 6.58305C2.36674 6.62216 2.32586 6.71992 2.32586 6.79813V15.8154C2.32586 15.8936 2.36674 15.9914 2.44762 16.0305L4.65349 17.2632C5.84797 17.8497 6.5963 17.1654 6.5963 16.4811V7.58112C6.5963 7.4638 6.69762 7.34649 6.83982 7.34649H7.87166C7.99342 7.34649 8.11429 7.44425 8.11429 7.58112V16.4802C8.11429 18.0257 7.2442 18.9251 5.72621 18.9251C5.26051 18.9251 4.89612 18.9251 3.86428 18.4363L1.73928 17.2632C1.48322 17.1224 1.26938 16.9157 1.11986 16.6647C0.970345 16.4136 0.890559 16.1272 0.888748 15.8349V6.81768C0.888748 6.23111 1.21225 5.68364 1.73928 5.39035L9.81535 0.871053C10.0783 0.736218 10.3695 0.665894 10.665 0.665894C10.9605 0.665894 11.2517 0.736218 11.5146 0.871053L19.5916 5.38946C20.1177 5.68275 20.4412 6.23022 20.4412 6.81679V15.8341C20.4412 16.4206 20.1177 16.9681 19.5916 17.2623L11.5146 21.7798C11.2465 21.896 10.9573 21.9559 10.665 21.9558V21.9575ZM13.1544 15.7567C9.61272 15.7567 8.88394 14.1925 8.88394 12.8621C8.88394 12.7448 8.98526 12.6274 9.12657 12.6274H10.1789C10.3006 12.6274 10.401 12.7057 10.401 12.823C10.5637 13.8592 11.0294 14.3676 13.1748 14.3676C14.875 14.3676 15.6038 13.9961 15.6038 13.1163C15.6038 12.6079 15.4011 12.2364 12.75 11.9822C10.5432 11.7662 9.16745 11.2979 9.16745 9.59591C9.16745 8.01127 10.5432 7.07186 12.8513 7.07186C15.442 7.07186 16.7174 7.93306 16.8791 9.81099C16.8773 9.87457 16.8559 9.93603 16.8178 9.98696C16.7778 10.0261 16.7174 10.0652 16.6561 10.0652H15.6038C15.5527 10.0639 15.5033 10.0461 15.4633 10.0144C15.4232 9.9826 15.3945 9.93868 15.3816 9.8892C15.1381 8.81381 14.5106 8.46098 12.8513 8.46098C10.9885 8.46098 10.7663 9.08666 10.7663 9.55592C10.7663 10.1238 11.0294 10.2998 13.5392 10.6126C16.0286 10.9255 17.2026 11.3752 17.2026 13.0567C17.1822 14.7791 15.7255 15.7567 13.1544 15.7567Z" fill="#6C63FF"/>
</g>
<defs>
<clipPath id="clip0_9:58">
<rect width="21.33" height="21.33" fill="white" transform="translate(0 0.666626)"/>
</clipPath>
</defs>
</svg>
