<svg width="22" height="22" viewBox="0 0 22 22" fill="none" xmlns="http://www.w3.org/2000/svg">
<g clip-path="url(#clip0_9:32)">
<path d="M10.6667 5.55554C4.68533 5.55554 0 8.09332 0 11.3333C0 14.5733 4.68533 17.1111 10.6667 17.1111C16.648 17.1111 21.3333 14.5733 21.3333 11.3333C21.3333 8.09332 16.648 5.55554 10.6667 5.55554ZM9.55911 7.33332H10.7236L10.3538 9.1111H11.3938C12.0533 9.1111 12.496 9.20354 12.7484 9.43376C12.9947 9.66132 13.0693 10.0347 12.9707 10.5431L12.5084 12.6667H11.3244L11.7502 10.7031C11.8018 10.4338 11.7813 10.2462 11.6907 10.1475C11.6009 10.0489 11.4027 9.99999 11.1058 9.99999H10.1733L9.61067 12.6667H8.44444L9.55911 7.33332ZM4.44444 9.1111H6.81422C7.944 9.1111 8.62844 9.86843 8.36089 10.9982C8.04978 12.3111 7.21778 12.6667 5.68533 12.6667H4.95289L4.72089 14H3.54311L4.44444 9.1111ZM13.7778 9.1111H16.1476C17.2773 9.1111 17.9618 9.86843 17.6942 10.9982C17.3831 12.3111 16.5502 12.6667 15.0187 12.6667H14.2862L14.0542 14H12.8764L13.7778 9.1111ZM5.45333 9.99999L5.11822 11.7778H5.87822C6.536 11.7778 7.14756 11.7031 7.24978 10.7218C7.288 10.3422 7.12978 9.99999 6.36978 9.99999H5.45333ZM14.7867 9.99999L14.4516 11.7778H15.2116C15.8693 11.7778 16.4809 11.7031 16.5831 10.7218C16.6213 10.3422 16.464 9.99999 15.7031 9.99999H14.7867Z" fill="#6C63FF"/>
</g>
<defs>
<clipPath id="clip0_9:32">
<rect width="21.3333" height="21.3333" fill="white" transform="translate(0 0.666626)"/>
</clipPath>
</defs>
</svg>
