<svg width="21" height="21" viewBox="0 0 21 21" fill="none" xmlns="http://www.w3.org/2000/svg">
<path d="M21 10.2279C21 8.83663 19.2579 7.518 16.5865 6.70075C17.2034 3.97862 16.9295 1.81212 15.722 1.11825C15.4294 0.95438 15.0983 0.871896 14.763 0.879375V1.83313C14.9599 1.83313 15.1183 1.8725 15.2513 1.94513C15.8331 2.27938 16.086 3.54988 15.8891 5.18525C15.8419 5.58775 15.7649 6.01125 15.6704 6.4435C14.7758 6.22793 13.8679 6.07213 12.9526 5.97712C12.4074 5.22488 11.8125 4.50987 11.172 3.83688C12.5676 2.54013 13.8775 1.82963 14.7683 1.82963V0.875C13.5905 0.875 12.0496 1.71412 10.4912 3.16925C8.93375 1.72375 7.392 0.8925 6.21513 0.8925V1.84625C7.1015 1.84625 8.41575 2.55325 9.81138 3.84125C9.212 4.47125 8.61263 5.18525 8.043 5.97712C7.12585 6.07108 6.21631 6.22837 5.32087 6.44787C5.222 6.02 5.14938 5.60525 5.09775 5.20713C4.8965 3.57088 5.145 2.30038 5.72337 1.96263C5.85112 1.88563 6.01825 1.85063 6.21513 1.85063V0.896875C5.85638 0.896875 5.53 0.973875 5.24825 1.13575C4.04513 1.82962 3.77563 3.99088 4.396 6.70513C1.73338 7.52763 0 8.841 0 10.2279C0 11.6191 1.74213 12.9377 4.4135 13.7541C3.79663 16.4771 4.0705 18.6436 5.278 19.3366C5.55625 19.4994 5.88175 19.5764 6.2405 19.5764C7.41825 19.5764 8.95913 18.7372 10.5175 17.2821C12.075 18.7285 13.6159 19.5589 14.7936 19.5589C15.1315 19.566 15.4651 19.4833 15.7605 19.3191C16.9636 18.6261 17.2331 16.4649 16.6128 13.7506C19.2666 12.9334 21 11.6148 21 10.2279ZM15.4262 7.37275C15.26 7.94487 15.0673 8.50898 14.8487 9.06325C14.491 8.36741 14.0982 7.69017 13.6719 7.03412C14.28 7.12425 14.8663 7.23537 15.4271 7.37275H15.4262ZM13.4663 11.9315C13.1329 12.509 12.7899 13.0576 12.4346 13.5669C11.1503 13.6801 9.85866 13.6815 8.57412 13.5713C7.83733 12.5188 7.19297 11.4045 6.64825 10.241C7.19214 9.07472 7.83376 7.95656 8.56625 6.8985C9.85022 6.78507 11.1416 6.78332 12.4259 6.89325C12.7811 7.4025 13.1285 7.94675 13.4619 8.52075C13.7874 9.08075 14.0831 9.6495 14.3526 10.2235C14.0801 10.8045 13.7844 11.3743 13.4663 11.9315V11.9315ZM14.8487 11.375C15.0797 11.9481 15.2775 12.5221 15.4394 13.0786C14.8794 13.216 14.2879 13.3315 13.6763 13.4208C14.1008 12.7587 14.4922 12.076 14.8487 11.375V11.375ZM10.5088 15.9425C10.1106 15.5312 9.7125 15.0736 9.31875 14.5722C9.70375 14.5897 10.0975 14.6029 10.4956 14.6029C10.8981 14.6029 11.2962 14.5941 11.6856 14.5722C11.3006 15.0736 10.9025 15.5312 10.5088 15.9425ZM7.32375 13.4208C6.73378 13.3353 6.14807 13.2226 5.5685 13.083C5.72687 12.5309 5.92375 11.9613 6.146 11.3925C6.32188 11.7338 6.5065 12.0768 6.70775 12.4198C6.909 12.7619 7.11375 13.0961 7.32375 13.4208ZM10.4869 4.51325C10.885 4.9245 11.2831 5.38212 11.6769 5.8835C11.2919 5.866 10.8981 5.85288 10.5 5.85288C10.0975 5.85288 9.69938 5.86162 9.31 5.8835C9.695 5.38212 10.0931 4.9245 10.4869 4.51325ZM7.31937 7.035C6.89489 7.69557 6.50357 8.37687 6.14688 9.07638C5.92219 8.51853 5.72507 7.94996 5.55625 7.37275C6.11625 7.23975 6.70775 7.12425 7.31937 7.035ZM3.44575 12.3935C1.93025 11.7477 0.95025 10.8999 0.95025 10.2279C0.95025 9.55588 1.93025 8.70362 3.44575 8.06225C3.81325 7.90387 4.21575 7.76213 4.63138 7.63C4.8755 8.46825 5.19663 9.3415 5.59388 10.2366C5.21882 11.0785 4.90163 11.945 4.6445 12.8301C4.23802 12.7043 3.83796 12.5585 3.44575 12.3935V12.3935ZM5.74875 18.5097C5.16688 18.1772 4.914 16.905 5.11088 15.2705C5.15813 14.868 5.23513 14.4436 5.32963 14.0114C6.16788 14.217 7.084 14.3754 8.04737 14.4786C8.59265 15.2309 9.18752 15.9459 9.828 16.6189C8.43238 17.9156 7.1225 18.6261 6.23175 18.6261C6.0637 18.628 5.89779 18.5883 5.74875 18.5106V18.5097ZM15.9022 15.2486C16.1035 16.884 15.855 18.1554 15.2766 18.4931C15.1489 18.5701 14.9817 18.6042 14.7849 18.6042C13.8985 18.6042 12.5842 17.8981 11.1886 16.6093C11.788 15.981 12.3874 15.2661 12.957 14.4742C13.8741 14.3803 14.7837 14.223 15.6791 14.0035C15.778 14.4357 15.8541 14.8505 15.9022 15.2486V15.2486ZM17.5499 12.3935C17.1824 12.5519 16.7799 12.6936 16.3642 12.8257C16.1026 11.9362 15.781 11.0653 15.4017 10.2191C15.7955 9.32925 16.1114 8.46038 16.3511 7.62563C16.7755 7.75775 17.1771 7.90387 17.5543 8.06225C19.0698 8.708 20.0497 9.55588 20.0497 10.2279C20.0454 10.8999 19.0654 11.7521 17.5499 12.3935V12.3935Z" fill="#6C63FF"/>
<path d="M10.4956 12.1844C11.0145 12.1844 11.5122 11.9782 11.8791 11.6113C12.246 11.2444 12.4521 10.7468 12.4521 10.2279C12.4521 9.70897 12.246 9.21132 11.8791 8.84441C11.5122 8.47749 11.0145 8.27136 10.4956 8.27136C9.97673 8.27136 9.47908 8.47749 9.11217 8.84441C8.74525 9.21132 8.53912 9.70897 8.53912 10.2279C8.53912 10.7468 8.74525 11.2444 9.11217 11.6113C9.47908 11.9782 9.97673 12.1844 10.4956 12.1844V12.1844Z" fill="#6C63FF"/>
</svg>
