<svg width="21" height="21" viewBox="0 0 21 21" fill="none" xmlns="http://www.w3.org/2000/svg">
<path d="M5.56237 7.875C3.255 8.47 1.75 9.48938 1.75 10.6531C1.75 12.4968 5.60437 14 10.3687 14C11.0162 14 11.4712 13.9659 12.075 13.9151" stroke="#6C63FF" stroke-width="1.75" stroke-linecap="round" stroke-linejoin="round"/>
<path d="M8.60735 13.9125C8.24598 13.391 7.9021 12.9211 7.57485 12.3375C5.16773 8.05 4.52285 3.78875 6.1486 2.82362C7.15485 2.21375 8.81473 3.045 10.5009 4.79587" stroke="#6C63FF" stroke-width="1.75" stroke-linecap="round" stroke-linejoin="round"/>
<path d="M5.62538 13.4636C5.01113 15.8156 5.13538 17.5901 6.11538 18.1842C7.67551 19.1292 10.829 16.471 13.153 12.2307C13.468 11.6445 13.7506 11.0679 14 10.5" stroke="#6C63FF" stroke-width="1.75" stroke-linecap="round" stroke-linejoin="round"/>
<path d="M10.5 16.205C12.187 17.955 13.8399 18.7862 14.8558 18.1764C16.4745 17.2121 15.8366 12.9509 13.4269 8.66249C13.0909 8.07012 12.747 7.60899 12.3944 7.08749" stroke="#6C63FF" stroke-width="1.75" stroke-linecap="round" stroke-linejoin="round"/>
<path d="M15.4525 13.125C17.738 12.5239 19.25 11.5063 19.25 10.346C19.25 8.49975 15.393 7 10.6357 7C9.98205 7 9.52792 7.02537 8.92505 7.07612" stroke="#6C63FF" stroke-width="1.75" stroke-linecap="round" stroke-linejoin="round"/>
<path d="M7 10.5C7.24938 9.9225 7.53113 9.3555 7.847 8.76925C10.1631 4.53075 13.3184 1.8655 14.8873 2.81838C15.8585 3.4125 15.9915 5.18613 15.3773 7.53725M10.7275 10.5131H10.7188C10.71 10.6269 10.6138 10.7231 10.4913 10.7231C10.4327 10.7202 10.3774 10.6951 10.3367 10.6528C10.2961 10.6105 10.2731 10.5543 10.2725 10.4956C10.2725 10.3731 10.3687 10.2769 10.4825 10.2769H10.4738C10.5875 10.2681 10.6925 10.3731 10.6925 10.4869" stroke="#6C63FF" stroke-width="1.75" stroke-linecap="round" stroke-linejoin="round"/>
</svg>
