<svg width="21" height="21" viewBox="0 0 21 21" fill="none" xmlns="http://www.w3.org/2000/svg">
<path d="M14.4725 6.125C13.7681 4.05562 12.2535 2.625 10.5 2.625C8.07275 2.625 6.10487 4.928 6.10487 8.309C6.10487 10.0205 7.48912 12.4451 8.30287 13.5555" stroke="#6C63FF" stroke-width="1.75" stroke-linecap="round" stroke-linejoin="round"/>
<path d="M4.12212 10.4816C2.67312 12.1239 2.18487 14.1434 3.0625 15.6537C4.27612 17.7449 7.55825 18.1308 10.5009 16.4412C11.991 15.5846 13.0165 13.4994 13.5774 12.2429" stroke="#6C63FF" stroke-width="1.75" stroke-linecap="round" stroke-linejoin="round"/>
<path d="M13.1372 17.4912C15.3344 17.4912 17.0949 17.1079 17.9384 15.6537C19.152 13.5624 17.7503 10.4973 14.8068 8.80769C13.3175 7.95107 10.9944 7.72707 9.62062 7.87144" stroke="#6C63FF" stroke-width="1.75" stroke-linecap="round" stroke-linejoin="round"/>
<path d="M9.18137 8.62921C9.60137 8.87071 10.1395 8.72721 10.3819 8.30896C10.4395 8.20953 10.4769 8.09968 10.492 7.98575C10.507 7.87181 10.4994 7.75602 10.4695 7.64503C10.4397 7.53405 10.3882 7.43005 10.3181 7.33902C10.2479 7.24799 10.1605 7.17172 10.0607 7.11459C9.85885 6.99827 9.61909 6.96666 9.39394 7.02668C9.16879 7.0867 8.97659 7.23345 8.85937 7.43484C8.80178 7.53433 8.76442 7.64422 8.74944 7.75819C8.73446 7.87216 8.74215 7.98797 8.77207 8.09897C8.802 8.20996 8.85356 8.31394 8.9238 8.40494C8.99404 8.49594 9.08158 8.57216 9.18137 8.62921V8.62921Z" stroke="#6C63FF" stroke-width="1.75" stroke-linecap="round" stroke-linejoin="round"/>
<path d="M9.1875 13.5625C9.1875 13.5625 8.79575 13.5625 8.3125 13.5625C7.82925 13.5625 7.4375 13.5625 7.4375 13.5625C7.4375 13.5625 7.82925 13.5625 8.3125 13.5625C8.79575 13.5625 9.1875 13.5625 9.1875 13.5625Z" stroke="#6C63FF" stroke-width="1.75" stroke-linecap="round" stroke-linejoin="round"/>
<path d="M14.4375 12.25C14.4375 12.25 14.0457 12.25 13.5625 12.25C13.0793 12.25 12.6875 12.25 12.6875 12.25C12.6875 12.25 13.0793 12.25 13.5625 12.25C14.0457 12.25 14.4375 12.25 14.4375 12.25Z" stroke="#6C63FF" stroke-width="1.75" stroke-linecap="round" stroke-linejoin="round"/>
</svg>
