<svg width="21" height="21" viewBox="0 0 21 21" fill="none" xmlns="http://www.w3.org/2000/svg">
<path d="M2.625 2.625H18.375V18.375H2.625V2.625ZM11.9963 15.6275C12.4338 16.485 13.3175 17.1413 14.7 17.1413C16.1 17.1413 17.15 16.415 17.15 15.0762C17.15 13.8425 16.4413 13.2912 15.1813 12.7487L14.8138 12.5913C14.175 12.32 13.9038 12.1362 13.9038 11.6987C13.9038 11.34 14.175 11.06 14.6125 11.06C15.0325 11.06 15.3125 11.2437 15.5663 11.6987L16.7125 10.9375C16.2313 10.0975 15.5488 9.77375 14.6125 9.77375C13.2913 9.77375 12.4425 10.6137 12.4425 11.725C12.4425 12.9325 13.1512 13.5012 14.2188 13.9562L14.5863 14.1137C15.2688 14.4112 15.6712 14.595 15.6712 15.1025C15.6712 15.5225 15.2775 15.8288 14.665 15.8288C13.9388 15.8288 13.5188 15.4525 13.2038 14.9275L11.9963 15.6275ZM11.375 9.84375H7V11.1562H8.3125V17.5H9.84375V11.1562H11.375V9.84375Z" fill="#6C63FF"/>
</svg>
