<svg width="21" height="21" viewBox="0 0 21 21" fill="none" xmlns="http://www.w3.org/2000/svg">
<g clip-path="url(#clip0_302_2)">
<path d="M7.2503 9.25575L7.6983 1.68087C7.70186 1.6216 7.72503 1.56519 7.76415 1.52053C7.80328 1.47586 7.85614 1.44546 7.91442 1.43412L15.2049 0.00524713C15.25 -0.00359502 15.2965 -0.000717428 15.3401 0.0136038C15.3837 0.027925 15.4229 0.0532093 15.4539 0.0870304C15.4849 0.120852 15.5067 0.162075 15.5172 0.206744C15.5277 0.251414 15.5265 0.298031 15.5138 0.342122L14.1506 5.06975C14.1379 5.11376 14.1367 5.16027 14.1472 5.20485C14.1577 5.24943 14.1794 5.29059 14.2103 5.32438C14.2412 5.35817 14.2802 5.38348 14.3237 5.39788C14.3672 5.41228 14.4136 5.41529 14.4585 5.40662L16.5481 5.00412C16.5972 4.99451 16.6481 4.99888 16.6949 5.01674C16.7417 5.0346 16.7826 5.06523 16.8128 5.10516C16.8431 5.14508 16.8615 5.19269 16.8661 5.24258C16.8706 5.29247 16.8611 5.34263 16.8385 5.38737L10.8973 17.2436L10.7897 17.4099C10.7665 17.4475 10.7341 17.4785 10.6955 17.5C10.6568 17.5215 10.6134 17.5326 10.5692 17.5324C10.4143 17.5324 10.2629 17.3994 10.3023 17.2095L11.2604 12.5711C11.2698 12.5257 11.2673 12.4786 11.253 12.4344C11.2387 12.3903 11.2132 12.3506 11.179 12.3193C11.1447 12.288 11.103 12.2661 11.0577 12.2558C11.0125 12.2455 10.9653 12.2471 10.9209 12.2605L9.66705 12.6411C9.62266 12.6546 9.57551 12.6564 9.53024 12.6462C9.48496 12.636 9.44311 12.6143 9.40879 12.583C9.37447 12.5518 9.34885 12.5122 9.33446 12.4681C9.32006 12.4239 9.31738 12.3768 9.32667 12.3314L9.93042 9.37825C9.93958 9.33416 9.93746 9.28847 9.92428 9.24541C9.91109 9.20235 9.88726 9.16332 9.85498 9.13191C9.82271 9.10051 9.78303 9.07776 9.73963 9.06575C9.69623 9.05375 9.6505 9.05289 9.60667 9.06325L7.57667 9.53225C7.53616 9.54155 7.49404 9.5413 7.45364 9.53151C7.41324 9.52171 7.37567 9.50265 7.34392 9.47582C7.31217 9.44899 7.2871 9.41513 7.27069 9.37694C7.25429 9.33874 7.24701 9.29725 7.24942 9.25575H7.2503ZM20.3543 2.3205L15.1235 3.2725L14.6475 4.92362L16.4649 4.57362C16.6058 4.54555 16.7518 4.56147 16.8833 4.61923C17.0148 4.67698 17.1253 4.77378 17.1999 4.8965C17.2632 4.99855 17.2992 5.11518 17.3044 5.23517C17.3097 5.35515 17.2839 5.47446 17.2297 5.58162L11.2875 17.4387L11.2762 17.4606L11.263 17.4807L11.1563 17.647C11.0932 17.7458 11.0063 17.8273 10.9036 17.8838C10.8008 17.9404 10.6856 17.9703 10.5683 17.9707C10.4621 17.9702 10.3573 17.9462 10.2614 17.9005C10.1656 17.8548 10.0809 17.7886 10.0135 17.7065C9.94802 17.6254 9.90144 17.5306 9.87722 17.4292C9.853 17.3278 9.85174 17.2222 9.87355 17.1202L10.7739 12.7619L9.79392 13.0594C9.65988 13.0998 9.51687 13.0995 9.38295 13.0587C9.24903 13.0179 9.13019 12.9384 9.04142 12.8301C8.97525 12.7493 8.92794 12.6547 8.90297 12.5533C8.87799 12.4519 8.87597 12.3462 8.89705 12.2439L9.4483 9.54887L7.67467 9.95837C7.55461 9.98587 7.42944 9.98153 7.31157 9.94577C7.1937 9.91001 7.08722 9.84407 7.00268 9.7545C6.93713 9.6844 6.88651 9.60172 6.85387 9.51148C6.82123 9.42123 6.80726 9.3253 6.8128 9.2295L7.15317 3.48075L0.643175 2.317C0.542872 2.2989 0.439487 2.3098 0.345165 2.34842C0.250842 2.38704 0.1695 2.45177 0.110694 2.53502C0.0518882 2.61827 0.0180609 2.71657 0.0131862 2.81837C0.0083115 2.92018 0.0325918 3.02126 0.0831749 3.10975L10.1325 20.7296C10.1795 20.8121 10.2475 20.8806 10.3296 20.9282C10.4118 20.9757 10.5051 21.0006 10.5999 21.0002C10.6948 20.9999 10.7879 20.9743 10.8697 20.9261C10.9515 20.878 11.019 20.8089 11.0653 20.7261L20.9178 3.108C20.9672 3.01935 20.9904 2.9185 20.9846 2.81719C20.9789 2.71588 20.9445 2.61828 20.8855 2.53576C20.8264 2.45324 20.7452 2.38919 20.6511 2.35108C20.5571 2.31297 20.4541 2.30236 20.3543 2.3205Z" fill="#6C63FF"/>
</g>
<defs>
<clipPath id="clip0_302_2">
<rect width="21" height="21" fill="white"/>
</clipPath>
</defs>
</svg>
